<svg width="76" height="76" viewBox="0 0 76 76" fill="none" xmlns="http://www.w3.org/2000/svg">
<g clip-path="url(#clip0_33_158)">
<path d="M30.2812 33.8437V22.1255H38.7362C43.358 22.1255 46.0607 24.2962 46.0607 28.0012C46.0607 31.8107 43.1918 33.8437 37.6818 33.8437H30.2812ZM30.2812 51.7132H39.2967C44.9207 51.7132 47.8943 49.4332 47.8943 45.1725C47.8943 40.9687 44.8067 38.7695 38.9357 38.7695H30.2812V51.7132V51.7132Z" fill="#515151"/>
<path d="M19.0095 0C13.9704 0 9.13768 2.00178 5.57449 5.56497C2.0113 9.12816 0.00952148 13.9609 0.00952148 19V57C0.00952148 62.0391 2.0113 66.8718 5.57449 70.435C9.13768 73.9982 13.9704 76 19.0095 76H57.0095C62.0486 76 66.8814 73.9982 70.4446 70.435C74.0077 66.8718 76.0095 62.0391 76.0095 57V19C76.0095 13.9609 74.0077 9.12816 70.4446 5.56497C66.8814 2.00178 62.0486 0 57.0095 0L19.0095 0V0ZM24.0445 57V16.8388H40.1898C47.728 16.8388 52.269 20.6815 52.269 26.8613C52.269 31.0603 49.1815 34.8175 45.2248 35.4873V35.9623C50.654 36.518 54.2688 40.3845 54.2688 45.619C54.2688 52.687 49.1198 57 40.5508 57H24.0445V57Z" fill="#515151"/>
</g>
<defs>
<clipPath id="clip0_33_158">
<rect width="76" height="76" fill="white"/>
</clipPath>
</defs>
</svg>
