<svg width="180" height="180" viewBox="0 0 180 180" fill="none" xmlns="http://www.w3.org/2000/svg">
<path d="M15 127.5V22.875C15 21.125 15.8125 19.375 17.4375 17.625C19.0625 15.875 20.75 15 22.5 15H119.812C121.688 15 123.437 15.8438 125.062 17.5313C126.687 19.2188 127.5 21 127.5 22.875V89.625C127.5 91.375 126.687 93.125 125.062 94.875C123.437 96.625 121.688 97.5 119.812 97.5H45L15 127.5ZM52.6875 135C50.9375 135 49.2188 134.125 47.5312 132.375C45.8438 130.625 45 128.875 45 127.125V108.75H138.75V45H157.5C159.25 45 160.938 45.875 162.562 47.625C164.188 49.375 165 51.1875 165 53.0625V164.812L135.188 135H52.6875ZM116.25 26.25H26.25V100.312L40.3125 86.25H116.25V26.25Z" fill="black"/>
</svg>
