<svg width="85" height="81" viewBox="0 0 85 81" fill="none" xmlns="http://www.w3.org/2000/svg">
<g clip-path="url(#clip0_27_117)">
<path d="M84.7523 80.997C84.7523 80.9985 84.7507 81 84.7491 81H0.00313897C0.00156949 81 0 80.9985 0 80.997V0.003C0 0.0015 0.00156949 0 0.00313897 0H84.7499C84.7515 0 84.7531 0.0015 84.7531 0.003V80.997H84.7523Z" fill="white"/>
<path d="M83.3398 79.6471C83.3398 79.6486 83.3382 79.6501 83.3367 79.6501H1.41574C1.41417 79.6501 1.4126 79.6486 1.4126 79.6471V1.3531C1.4126 1.3516 1.41417 1.3501 1.41574 1.3501H83.3374C83.339 1.3501 83.3406 1.3516 83.3406 1.3531V79.6471H83.3398Z" fill="#515151"/>
<path d="M23.7776 61.7752C23.7776 61.8344 23.8137 61.9169 23.8569 61.9582L25.2592 63.2984C25.3032 63.3404 25.3895 63.3742 25.4507 63.3742H30.2494C30.3114 63.3742 30.3977 63.3397 30.4409 63.2984L31.8432 61.9582C31.8872 61.9162 31.9225 61.8337 31.9225 61.7752V47.2229C31.9225 47.1637 31.9594 47.0819 32.0041 47.0414L38.1008 41.4764C38.1455 41.4359 38.2106 41.4419 38.2452 41.4914L53.6489 63.2864C53.6834 63.3352 53.7627 63.3757 53.8239 63.3757H60.6221C60.6841 63.3757 60.7579 63.3329 60.7861 63.2804L62.0197 60.9959C62.048 60.9434 62.0425 60.8609 62.0072 60.8122L43.9895 35.8522C43.9542 35.8034 43.9612 35.7299 44.0052 35.6879L60.5774 19.9237C60.6213 19.8817 60.6566 19.7999 60.6566 19.7407V19.4497C60.6566 19.3904 60.6362 19.2982 60.6119 19.2434L59.6561 17.1427C59.6318 17.0887 59.5604 17.0444 59.4992 17.0444H52.7794C52.7174 17.0444 52.6311 17.0789 52.5879 17.1202L32.0033 36.8677C31.9594 36.9097 31.9241 36.8954 31.9241 36.8362V18.7199C31.9241 18.6607 31.8895 18.5774 31.8472 18.5339L30.4715 17.1239C30.4291 17.0804 30.3444 17.0452 30.2824 17.0452H25.4507C25.3887 17.0452 25.304 17.0804 25.2616 17.1239L23.853 18.5774C23.8106 18.6209 23.7769 18.7042 23.7769 18.7634V61.7752H23.7776Z" fill="white"/>
</g>
<defs>
<clipPath id="clip0_27_117">
<rect width="84.7523" height="81" fill="white"/>
</clipPath>
</defs>
</svg>
