<svg width="86" height="81" viewBox="0 0 86 81" fill="none" xmlns="http://www.w3.org/2000/svg">
<path d="M15.1491 40.3418C15.4318 40.3415 15.7095 40.2712 15.9553 40.1378C16.1412 40.0365 16.3045 39.9011 16.4356 39.7394C16.5666 39.5777 16.663 39.3928 16.7192 39.1954C16.7753 38.998 16.7901 38.7919 16.7627 38.589C16.7353 38.3861 16.6662 38.1904 16.5595 38.0131C13.8348 33.4948 13.6113 29.7675 15.3262 26.9389C17.6867 23.0518 24.2004 21.6153 32.7518 23.0961C33.1764 23.1696 33.6142 23.0793 33.9694 22.8451C34.3246 22.6109 34.5682 22.2518 34.6471 21.8463C34.6853 21.6451 34.6817 21.4387 34.6364 21.2388C34.5911 21.0389 34.505 20.8495 34.3831 20.6815C34.2612 20.5134 34.1059 20.3699 33.9259 20.2593C33.746 20.1486 33.545 20.0729 33.3344 20.0365C28.5026 19.2012 24.0647 19.217 20.5239 20.0839C16.8326 20.9873 14.0682 22.8177 12.5039 25.3806C10.1865 29.2075 10.4017 34.039 13.7322 39.5587C13.8752 39.7971 14.0815 39.995 14.3304 40.1325C14.5792 40.2701 14.8617 40.3423 15.1491 40.3418V40.3418ZM60.6455 22.7386C65.9823 22.805 69.3542 24.2115 71.0393 26.9879C73.3915 30.8607 71.4564 36.9247 65.8631 43.2069C65.6619 43.4331 65.5327 43.7098 65.4909 44.004C65.4491 44.2983 65.4964 44.5978 65.6272 44.8671C65.758 45.1365 65.9668 45.3644 66.229 45.5238C66.4911 45.6832 66.7955 45.7675 67.1062 45.7666C67.3428 45.7669 67.5766 45.718 67.7915 45.6235C68.0064 45.529 68.1973 45.3911 68.351 45.2192C71.516 41.6644 73.706 38.0147 74.6826 34.6655C75.699 31.185 75.4159 27.9878 73.855 25.4296C71.5706 21.6675 67.2122 19.7106 60.6803 19.6283H60.6571C60.2256 19.6258 59.8106 19.7872 59.5036 20.0771C59.1966 20.3669 59.0226 20.7615 59.02 21.174C59.0174 21.5864 59.1863 21.983 59.4896 22.2764C59.7929 22.5698 60.2057 22.7361 60.6373 22.7386H60.6455ZM54.8287 65.6369C54.4584 65.4259 54.0158 65.3632 53.5973 65.4624C53.1788 65.5617 52.8182 65.8149 52.5941 66.1669C49.8777 70.4621 46.5406 72.8273 43.1968 72.8273C38.4808 72.8273 33.927 68.1903 30.9922 60.421C30.8446 60.0335 30.5426 59.7176 30.1522 59.5421C29.7617 59.3666 29.3145 59.3459 28.9081 59.4844C28.7058 59.5523 28.5196 59.6578 28.3601 59.7947C28.2006 59.9316 28.071 60.0973 27.9787 60.2822C27.8864 60.4671 27.8332 60.6677 27.8223 60.8723C27.8114 61.077 27.8428 61.2816 27.9149 61.4746C29.5703 65.8679 31.8 69.5034 34.3707 71.9888C37.0374 74.5738 40.0898 75.9439 43.1968 75.9439C47.7291 75.9439 52.0594 73.044 55.3882 67.779C55.4989 67.6038 55.5722 67.4095 55.604 67.2071C55.6358 67.0048 55.6254 66.7984 55.5734 66.5999C55.5214 66.4014 55.4288 66.2147 55.301 66.0505C55.1732 65.8863 55.0127 65.7479 54.8287 65.6433V65.6369ZM72.2477 53.5581C71.3721 53.5539 70.5091 53.7563 69.735 54.1473C68.9609 54.5382 68.2998 55.1058 67.8102 55.7995C67.3207 56.4932 67.0178 57.2917 66.9285 58.124C66.8392 58.9564 66.9662 59.797 67.2983 60.5713C60.379 63.6562 47.4675 61.3291 35.5377 54.7779C30.09 51.7878 25.2482 48.1555 21.5337 44.2748C21.2414 43.9713 20.8356 43.7903 20.4045 43.7711C19.9734 43.7518 19.5518 43.8959 19.2311 44.1719C19.0722 44.3091 18.9433 44.475 18.8518 44.6601C18.7603 44.8451 18.7081 45.0456 18.6981 45.25C18.6881 45.4545 18.7205 45.6588 18.7935 45.8512C18.8666 46.0435 18.9787 46.2202 19.1235 46.371C23.0615 50.4842 28.1748 54.3254 33.9105 57.4737C40.5781 61.1329 47.5288 63.585 54.011 64.5627C55.9268 64.8599 57.8638 65.0138 59.8046 65.0231C63.6317 65.0231 66.9225 64.3428 69.4899 62.9997C70.1929 63.41 70.9858 63.6591 71.8064 63.7272C72.627 63.7954 73.453 63.6809 74.2195 63.3927C74.9861 63.1045 75.6723 62.6504 76.2243 62.0661C76.7763 61.4818 77.1791 60.7831 77.401 60.025C77.623 59.2669 77.6581 58.4699 77.5036 57.6966C77.3491 56.9234 77.0091 56.1948 76.5104 55.5683C76.0118 54.9417 75.3679 54.4341 74.6295 54.0853C73.891 53.7365 73.078 53.5561 72.2543 53.5581H72.2477ZM72.2477 60.6235C71.7778 60.6235 71.3217 60.4719 70.9532 60.1932C70.8517 60.0591 70.7288 59.9412 70.589 59.8435C70.302 59.4863 70.1499 59.0468 70.1575 58.5965C70.1651 58.1462 70.3319 57.7115 70.6307 57.3633C70.9296 57.0151 71.343 56.7738 71.8036 56.6786C72.2642 56.5835 72.7449 56.6401 73.1676 56.8392C73.5903 57.0384 73.93 57.3684 74.1315 57.7755C74.333 58.1826 74.3844 58.6429 74.2774 59.0815C74.1704 59.5202 73.9113 59.9113 73.5421 60.1912C73.173 60.4712 72.7156 60.6235 72.2443 60.6235H72.2477Z" fill="#515151"/>
<path d="M14.3762 53.566C14.4705 50.2026 16.4304 46.1305 19.9513 41.9919C23.79 37.491 29.3353 33.1325 35.5675 29.7074C41.0715 26.6857 46.3602 24.6607 51.8013 23.5517C52.0135 23.5122 52.2153 23.4326 52.395 23.3176C52.5747 23.2026 52.7286 23.0546 52.8477 22.8822C52.9668 22.7097 53.0488 22.5163 53.0888 22.3132C53.1288 22.1101 53.1261 21.9015 53.0808 21.6994C53.0355 21.4973 52.9485 21.3059 52.8249 21.1364C52.7013 20.9668 52.5435 20.8225 52.3609 20.7119C52.1783 20.6012 51.9744 20.5265 51.7612 20.492C51.548 20.4575 51.3298 20.464 51.1193 20.5111C45.3505 21.6865 39.734 23.8333 33.9387 27.0116C20.0042 34.6607 10.703 45.8599 11.1268 54.4061C10.0665 55.0761 9.29041 56.0851 8.93766 57.2523C8.58492 58.4194 8.67852 59.6685 9.20172 60.7757C9.72491 61.8829 10.6435 62.7759 11.7929 63.2946C12.9423 63.8134 14.2475 63.9241 15.4745 63.6069C16.7016 63.2897 17.7703 62.5653 18.4894 61.5634C19.2084 60.5616 19.5307 59.3478 19.3985 58.1395C19.2663 56.9312 18.6883 55.8074 17.7681 54.9694C16.8478 54.1313 15.6453 53.6338 14.3762 53.566V53.566ZM14.0799 60.6235C13.6713 60.6207 13.2727 60.5023 12.9344 60.2833C12.5961 60.0643 12.3332 59.7545 12.1789 59.3929C12.0246 59.0313 11.9857 58.6341 12.0672 58.2515C12.1487 57.8688 12.347 57.5178 12.6369 57.2426C12.9269 56.9675 13.2956 56.7806 13.6965 56.7054C14.0975 56.6303 14.5128 56.6702 14.89 56.8203C15.2672 56.9704 15.5895 57.2239 15.8162 57.5488C16.0429 57.8736 16.1639 58.2554 16.1639 58.6459C16.1613 59.1721 15.9404 59.6758 15.5497 60.0465C15.159 60.4172 14.6304 60.6247 14.0799 60.6235V60.6235Z" fill="#515151"/>
<path d="M43.1966 15.2382C44.0588 15.2403 44.9088 15.0427 45.6736 14.6622C46.4384 14.2817 47.0954 13.7297 47.5882 13.0534C50.5495 14.9028 53.2162 18.5906 55.1712 23.5138C57.3231 28.9544 58.4553 35.4392 58.4553 42.2672C58.4553 48.1492 57.5962 53.7132 55.9723 58.6571C55.9073 58.8516 55.8835 59.0566 55.9022 59.2601C55.921 59.4635 55.982 59.6613 56.0816 59.842C56.1808 60.0239 56.3167 60.1852 56.4815 60.3166C56.6463 60.4481 56.8367 60.547 57.0417 60.6077C57.4539 60.7294 57.8998 60.6907 58.2823 60.4999C58.6648 60.3091 58.9531 59.9817 59.0843 59.5889C60.8092 54.346 61.7213 48.4609 61.7213 42.2672C61.7213 34.8048 60.4351 27.7489 58.0018 21.859C55.6165 16.0878 52.3522 11.9872 48.5433 9.96849C48.5104 8.96523 48.1692 7.99344 47.5621 7.17439C46.955 6.35535 46.1089 5.72532 45.1295 5.36295C44.1501 5.00057 43.0807 4.92189 42.0548 5.13674C41.0289 5.35159 40.0919 5.85043 39.3608 6.57103C38.6297 7.29162 38.1368 8.20205 37.9437 9.18868C37.7506 10.1753 37.8658 11.1944 38.2749 12.1189C38.684 13.0433 39.369 13.8322 40.2443 14.3869C41.1195 14.9416 42.1464 15.2377 43.1966 15.2382V15.2382ZM43.1966 8.17288C43.6052 8.17569 44.0038 8.29406 44.3421 8.51306C44.6804 8.73205 44.9433 9.04188 45.0976 9.40346C45.2519 9.76505 45.2908 10.1622 45.2093 10.5449C45.1277 10.9275 44.9295 11.2786 44.6396 11.5537C44.3496 11.8288 43.9809 12.0158 43.5799 12.0909C43.179 12.1661 42.7637 12.1261 42.3865 11.976C42.0093 11.8259 41.687 11.5725 41.4603 11.2476C41.2336 10.9227 41.1126 10.5409 41.1126 10.1504C41.1152 9.62425 41.3361 9.12056 41.7268 8.74983C42.1175 8.37911 42.6461 8.17162 43.1966 8.17288V8.17288ZM42.3358 38.5004C41.3615 38.6998 40.4991 39.2371 39.9148 40.0085C39.3306 40.7799 39.066 41.7308 39.1722 42.6776C39.2783 43.6245 39.7477 44.5002 40.4896 45.1358C41.2316 45.7714 42.1936 46.1219 43.19 46.1195C43.4771 46.1192 43.7634 46.0901 44.0441 46.0325C44.5675 45.931 45.0647 45.7312 45.5066 45.4446C45.9486 45.158 46.3265 44.7904 46.6186 44.3631C46.9107 43.9357 47.111 43.4572 47.208 42.9553C47.3049 42.4533 47.2966 41.938 47.1835 41.4391C47.0703 40.9403 46.8546 40.4679 46.5489 40.0494C46.2432 39.6309 45.8535 39.2746 45.4025 39.0012C44.9515 38.7278 44.4482 38.5427 43.9217 38.4568C43.3953 38.3708 42.8562 38.3856 42.3358 38.5004V38.5004Z" fill="#515151"/>
</svg>
