<svg width="64" height="64" viewBox="0 0 64 64" fill="none" xmlns="http://www.w3.org/2000/svg">
<g clip-path="url(#clip0_33_164)">
<path fill-rule="evenodd" clip-rule="evenodd" d="M58.9515 49.8526C55.4707 49.7557 52.7703 50.1124 50.507 51.0645C49.8553 51.3263 48.8095 51.3263 48.7236 52.1465C49.0719 52.4907 49.1138 53.054 49.4192 53.531C49.9411 54.3968 50.8562 55.5631 51.6825 56.1681L54.4678 58.1585C56.1653 59.1959 58.0803 59.8019 59.7339 60.8402C60.6919 61.4462 61.649 62.2247 62.607 62.8743C63.0948 63.2204 63.3904 63.7837 64.0001 63.999V63.8681C63.6957 63.4803 63.6079 62.9179 63.3045 62.4836L61.9972 61.23C60.7358 59.543 59.1681 58.0713 57.4706 56.8613C56.0775 55.9092 53.0317 54.612 52.4659 53.0123L52.38 52.9153C53.3361 52.8184 54.4678 52.482 55.3829 52.2221C56.8638 51.8343 58.212 51.9196 59.7339 51.5309L61.8246 50.9249V50.5371C61.0412 49.7586 60.4754 48.7202 59.649 47.9853C57.4296 46.0821 54.9907 44.2216 52.4659 42.6646C51.1167 41.7997 49.3753 41.2364 47.9392 40.5025C47.4154 40.2427 46.5461 40.1128 46.2418 39.6804C45.4564 38.7302 45.0223 37.4747 44.4565 36.3491L40.8878 28.8226C40.1044 27.1357 39.6244 25.4487 38.6684 23.8916C34.1847 16.5378 29.3087 12.0828 21.8222 7.71318C20.2125 6.80473 18.2975 6.41401 16.2614 5.93895L12.9972 5.76443C12.2996 5.46194 11.604 4.63978 10.9943 4.25003C8.51343 2.69298 2.11466 -0.680971 0.285459 3.76527C-0.890106 6.57689 2.02685 9.34489 3.01706 10.773C3.75849 11.7677 4.71455 12.8924 5.23844 14.017C5.53111 14.7519 5.62867 15.5314 5.93402 16.31C6.62961 18.2131 7.28324 20.3335 8.19735 22.1077C8.68514 23.0162 9.19732 23.9692 9.80705 24.7904C10.1553 25.2752 10.7651 25.4826 10.8948 26.2612C10.2851 27.1269 10.2431 28.4232 9.89485 29.5062C8.3271 34.3945 8.93683 40.4502 11.1563 44.049C11.8538 45.1301 13.4976 47.5102 15.7278 46.6008C17.6867 45.8223 17.2497 43.3568 17.8155 41.1938C17.9472 40.6751 17.8594 40.329 18.1199 39.9819V40.0788L19.9052 43.669C21.2544 45.7884 23.6055 47.995 25.5635 49.4667C26.6074 50.2453 27.4347 51.5871 28.74 52.0622V51.9313H28.6541C28.3927 51.5435 28.0005 51.369 27.6522 51.0665C26.8688 50.2879 25.9986 49.3359 25.3889 48.471C23.5616 46.0492 21.9519 43.3665 20.5149 40.5985C19.8174 39.2576 19.2077 37.7869 18.6438 36.446C18.3804 35.9264 18.3804 35.1469 17.9463 34.889C17.2926 35.8391 16.3366 36.6632 15.8556 37.8305C15.0283 39.6901 14.9425 41.983 14.6381 44.3622C14.4625 44.4058 14.5405 44.3622 14.4625 44.4591C13.0713 44.114 12.5913 42.6849 12.0694 41.475C10.7641 38.4035 10.5455 33.4725 11.6772 29.925C11.9816 29.0166 13.2889 26.1613 12.7669 25.2965C12.5035 24.4743 11.6353 23.9993 11.1553 23.3497C10.5894 22.5275 9.98167 21.4901 9.58949 20.5817C8.54563 18.1579 8.0237 15.4771 6.89106 13.0543C6.36717 11.9296 5.45404 10.7614 4.71358 9.72397C3.8863 8.55569 2.97414 7.73354 2.3205 6.35003C2.10295 5.86526 1.79857 5.09546 2.14685 4.5758C2.2327 4.22968 2.4083 4.09103 2.75463 4.01347C3.32046 3.52871 4.93211 4.14339 5.49794 4.40128C7.10763 5.05086 8.45685 5.65585 9.80607 6.56332C10.4158 6.99573 11.0694 7.81789 11.8528 8.03506H12.7679C14.161 8.33755 15.7268 8.13201 17.0312 8.51982C19.3384 9.25666 21.4271 10.3367 23.3002 11.506C29.0014 15.0961 33.7037 20.2007 36.8802 26.3009C37.4021 27.2956 37.6196 28.2041 38.0996 29.2425C39.0147 31.3628 40.1464 33.5248 41.0585 35.6025C41.9736 37.6356 42.8438 39.7133 44.1491 41.4003C44.8028 42.3087 47.4134 42.7838 48.588 43.2598C49.4592 43.6477 50.8074 43.9967 51.5928 44.4717C53.0717 45.3802 54.5517 46.4186 55.9438 47.4133C56.6394 47.931 58.8169 49.013 58.9466 49.8759L58.9515 49.8526ZM14.563 12.2622C13.9616 12.2569 13.3621 12.3296 12.7796 12.4784V12.5753H12.8655C13.2137 13.2676 13.8235 13.7436 14.2586 14.3496L15.2605 16.4263L15.3463 16.3293C15.9561 15.8969 16.2614 15.2047 16.2614 14.1673C16 13.8648 15.9571 13.5614 15.7395 13.2589C15.478 12.8265 14.9122 12.6093 14.563 12.2641V12.2622Z" fill="#515151"/>
</g>
<defs>
<clipPath id="clip0_33_164">
<rect width="64" height="64" fill="white"/>
</clipPath>
</defs>
</svg>
