<svg width="90" height="91" viewBox="0 0 90 91" fill="none" xmlns="http://www.w3.org/2000/svg">
<g clip-path="url(#clip0_27_110)">
<path d="M51.5356 13.9993V27.9999L76.9455 42.0006V27.9999L51.5356 13.9993ZM0.714355 27.9999V42.0006L13.4193 48.9995V35.0003L0.714355 27.9999ZM38.8292 35.0003L26.1242 42.0006V83.9997L38.8292 91V63.0002L51.5356 70.0005V55.9998L38.8292 48.9995V35.0003Z" fill="#515151"/>
<path d="M51.5358 13.9993L13.4194 35.0003V48.9995L38.8293 35.0003V48.9995L51.5358 42.0006V13.9993ZM89.6521 20.9996L76.9456 27.9999V42.0006L89.6521 35.0003V20.9996ZM64.2407 48.9995L51.5358 55.9998V70.0005L64.2407 63.0002V48.9995ZM51.5358 70.0005L38.8293 63.0002V91L51.5358 83.9997V70.0005Z" fill="#7D7D7D"/>
<path d="M51.5356 0L0.714355 27.9999L13.4193 35.0002L51.5356 13.9992L76.9455 27.9999L89.6519 20.9996L51.5356 0ZM51.5356 42.0006L38.8292 48.9994L51.5356 55.9998L64.2405 48.9994L51.5356 42.0006Z" fill="#DEDCDC"/>
</g>
<defs>
<clipPath id="clip0_27_110">
<rect width="88.9376" height="91" fill="white" transform="translate(0.714355)"/>
</clipPath>
</defs>
</svg>
