<svg width="214" height="150" viewBox="0 0 214 150" fill="none" xmlns="http://www.w3.org/2000/svg">
<path d="M19.625 138.969C14.2812 138.969 9.67969 137.039 5.82031 133.18C1.96094 129.32 0.03125 124.719 0.03125 119.375C0.03125 117.831 0.565624 116.555 1.63437 115.545C2.70312 114.536 3.95 114.031 5.375 114.031C6.91875 114.031 8.19531 114.536 9.20469 115.545C10.2141 116.555 10.7188 117.831 10.7188 119.375C10.7188 121.75 11.6094 123.828 13.3906 125.609C15.1719 127.391 17.25 128.281 19.625 128.281C20.9312 128.281 22.5344 127.777 24.4344 126.767C26.3344 125.758 28.4719 124.422 30.8469 122.759C33.2219 121.097 35.6562 119.048 38.15 116.614C40.6437 114.18 43.1375 111.537 45.6312 108.688C50.6187 102.988 54.9531 96.6938 58.6344 89.8063C62.3156 82.9188 64.1562 76.15 64.1562 69.5V5.375C64.1562 3.83125 64.6906 2.55469 65.7594 1.54531C66.8281 0.535938 68.075 0.03125 69.5 0.03125C71.0437 0.03125 72.3203 0.535938 73.3297 1.54531C74.3391 2.55469 74.8438 3.83125 74.8438 5.375V69.5C74.8438 76.15 76.6844 82.9188 80.3656 89.8063C84.0469 96.6938 88.3813 102.988 93.3688 108.688C95.8625 111.537 98.3562 114.18 100.85 116.614C103.344 119.048 105.778 121.097 108.153 122.759C110.528 124.422 112.666 125.758 114.566 126.767C116.466 127.777 118.069 128.281 119.375 128.281C121.869 128.281 123.977 127.391 125.698 125.609C127.42 123.828 128.281 121.75 128.281 119.375C128.281 117.831 128.816 116.555 129.884 115.545C130.953 114.536 132.2 114.031 133.625 114.031C135.169 114.031 136.445 114.536 137.455 115.545C138.464 116.555 138.969 117.831 138.969 119.375C138.969 124.719 137.069 129.32 133.269 133.18C129.469 137.039 124.838 138.969 119.375 138.969C116.644 138.969 113.556 138.137 110.113 136.475C106.669 134.812 103.047 132.556 99.2469 129.706C95.4469 126.856 91.7359 123.472 88.1141 119.553C84.4922 115.634 81.1375 111.419 78.05 106.906C76.0312 104.294 74.3984 102.453 73.1516 101.384C71.9047 100.316 70.6875 99.7812 69.5 99.7812C68.3125 99.7812 67.0953 100.316 65.8484 101.384C64.6016 102.453 62.9688 104.294 60.95 106.906C57.8625 111.419 54.4781 115.634 50.7969 119.553C47.1156 123.472 43.4344 126.856 39.7531 129.706C36.0719 132.556 32.4797 134.812 28.9766 136.475C25.4734 138.137 22.3563 138.969 19.625 138.969ZM23.1875 115.456L8.225 103.344C6.8 102.156 5.67187 100.791 4.84062 99.2469C4.00937 97.7031 3.59375 95.9812 3.59375 94.0812C3.59375 92.1813 3.95 90.4297 4.6625 88.8266C5.375 87.2234 6.44375 85.8281 7.86875 84.6406C8.7 84.0469 9.59062 83.7203 10.5406 83.6609C11.4906 83.6016 12.2625 83.9875 12.8563 84.8187C13.45 85.65 13.7766 86.5703 13.8359 87.5797C13.8953 88.5891 13.5094 89.3906 12.6781 89.9844C12.2031 90.3406 11.7578 90.875 11.3422 91.5875C10.9266 92.3 10.7188 93.1312 10.7188 94.0812C10.7188 94.675 10.8672 95.3281 11.1641 96.0406C11.4609 96.7531 11.9656 97.4062 12.6781 98L28.8875 110.825C27.3438 112.25 26.3047 113.2 25.7703 113.675C25.2359 114.15 24.375 114.744 23.1875 115.456ZM41.7125 97.1094L18.9125 78.7625C17.3688 77.575 16.2109 76.1797 15.4391 74.5766C14.6672 72.9734 14.2812 71.2219 14.2812 69.3219C14.2812 67.4219 14.6375 65.6703 15.35 64.0672C16.0625 62.4641 17.1312 61.0094 18.5562 59.7031C19.2687 59.1094 20.1594 58.8125 21.2281 58.8125C22.2969 58.8125 23.1281 59.2281 23.7219 60.0594C24.3156 60.7719 24.6125 61.6328 24.6125 62.6422C24.6125 63.6516 24.1969 64.4531 23.3656 65.0469C22.7719 65.5219 22.2969 66.1453 21.9406 66.9172C21.5844 67.6891 21.4062 68.55 21.4062 69.5C21.4062 70.2125 21.5547 70.8953 21.8516 71.5484C22.1484 72.2016 22.6531 72.825 23.3656 73.4188L45.6312 91.2313C44.6812 92.775 44.0578 93.7844 43.7609 94.2594C43.4641 94.7344 42.7813 95.6844 41.7125 97.1094ZM52.9344 73.2406L29.6 54.3594C28.0563 53.1719 26.8984 51.7172 26.1266 49.9953C25.3547 48.2734 24.9688 46.4625 24.9688 44.5625C24.9688 42.5438 25.3547 40.7328 26.1266 39.1297C26.8984 37.5266 28.0563 36.0719 29.6 34.7656C30.3125 34.1719 31.1734 33.875 32.1828 33.875C33.1922 33.875 33.9937 34.2906 34.5875 35.1219C35.1812 35.8344 35.4781 36.6953 35.4781 37.7047C35.4781 38.7141 35.0625 39.5156 34.2313 40.1094C33.875 40.4656 33.4297 41.0594 32.8953 41.8906C32.3609 42.7219 32.0938 43.6719 32.0938 44.7406C32.0938 44.9781 32.8063 46.3438 34.2313 48.8375L53.4688 64.5125V69.5C53.4688 70.5687 53.4391 71.1922 53.3797 71.3703C53.3203 71.5484 53.1719 72.1719 52.9344 73.2406ZM53.4688 39.7531L39.9312 28.3531C38.5062 27.1656 37.4375 25.8 36.725 24.2563C36.0125 22.7125 35.6562 21.05 35.6562 19.2687C35.6562 15.9437 36.8438 13.0938 39.2188 10.7188C41.5938 8.34375 44.4437 7.15625 47.7687 7.15625C49.075 7.15625 50.3516 7.30469 51.5984 7.60156C52.8453 7.89844 53.4688 8.9375 53.4688 10.7188C53.4688 12.5 52.8453 13.5391 51.5984 13.8359C50.3516 14.1328 49.075 14.2812 47.7687 14.2812C46.3438 14.2812 45.1562 14.8156 44.2062 15.8844C43.2562 16.9531 42.7812 18.1406 42.7812 19.4469C42.7812 20.0406 42.9297 20.6641 43.2266 21.3172C43.5234 21.9703 43.9688 22.5344 44.5625 23.0094L53.4688 30.4906V39.7531ZM86.0656 73.2406C85.8281 72.1719 85.6797 71.5484 85.6203 71.3703C85.5609 71.1922 85.5312 70.5687 85.5312 69.5V64.5125L104.769 48.8375C105.481 48.2438 106.194 46.8781 106.906 44.7406C106.906 43.6719 106.669 42.7219 106.194 41.8906C105.719 41.0594 105.244 40.4656 104.769 40.1094C103.938 39.5156 103.522 38.7141 103.522 37.7047C103.522 36.6953 103.819 35.8344 104.412 35.1219C105.006 34.2906 105.838 33.875 106.906 33.875C107.975 33.875 108.866 34.1719 109.578 34.7656C111.122 36.0719 112.25 37.5563 112.963 39.2188C113.675 40.8812 114.031 42.6625 114.031 44.5625C114.031 46.4625 113.645 48.2438 112.873 49.9062C112.102 51.5687 110.944 52.9938 109.4 54.1813L86.0656 73.2406ZM85.5312 39.7531V30.4906L94.4375 23.0094C95.0312 22.5344 95.4766 22 95.7734 21.4062C96.0703 20.8125 96.2188 20.1594 96.2188 19.4469C96.2188 18.0219 95.7438 16.8047 94.7938 15.7953C93.8438 14.7859 92.6562 14.2812 91.2313 14.2812C89.925 14.2812 88.6484 14.1328 87.4016 13.8359C86.1547 13.5391 85.5312 12.5 85.5312 10.7188C85.5312 8.9375 86.1547 7.89844 87.4016 7.60156C88.6484 7.30469 89.925 7.15625 91.2313 7.15625C94.5563 7.15625 97.4062 8.34375 99.7812 10.7188C102.156 13.0938 103.344 15.9437 103.344 19.2687C103.344 21.05 102.988 22.7125 102.275 24.2563C101.562 25.8 100.494 27.1656 99.0687 28.3531L85.5312 39.7531ZM97.2875 96.9313L95.15 94.0812C94.7938 93.6062 94.1406 92.5969 93.1906 91.0531L115.456 73.2406C116.05 72.7656 116.703 71.4 117.416 69.1437C117.416 68.55 116.881 67.2437 115.812 65.225C114.981 64.5125 114.506 63.6813 114.387 62.7313C114.269 61.7812 114.566 60.8312 115.278 59.8812C115.872 59.05 116.673 58.6344 117.683 58.6344C118.692 58.6344 119.553 58.9313 120.266 59.525C121.691 60.7125 122.789 62.1375 123.561 63.8C124.333 65.4625 124.719 67.2438 124.719 69.1437C124.719 71.0437 124.333 72.825 123.561 74.4875C122.789 76.15 121.631 77.575 120.088 78.7625L97.2875 96.9313ZM115.812 115.456C114.625 114.744 113.764 114.15 113.23 113.675C112.695 113.2 111.656 112.25 110.113 110.825L126.322 98C126.916 97.525 127.569 96.2188 128.281 94.0812C128.281 93.25 128.103 92.4484 127.747 91.6766C127.391 90.9047 126.975 90.3406 126.5 89.9844C125.669 89.3906 125.253 88.5891 125.253 87.5797C125.253 86.5703 125.55 85.65 126.144 84.8187C126.738 83.9875 127.509 83.6016 128.459 83.6609C129.409 83.7203 130.3 84.0469 131.131 84.6406C132.556 85.8281 133.625 87.2234 134.338 88.8266C135.05 90.4297 135.406 92.1813 135.406 94.0812C135.406 95.9812 135.02 97.7031 134.248 99.2469C133.477 100.791 132.378 102.156 130.953 103.344L115.812 115.456Z" fill="black"/>
<path d="M210.383 149.429L191.754 130.8C190.337 132.028 188.685 132.984 186.796 133.669C184.907 134.353 182.9 134.696 180.775 134.696C175.675 134.696 171.354 132.925 167.812 129.383C164.271 125.842 162.5 121.568 162.5 116.562C162.5 111.557 164.271 107.283 167.812 103.742C171.354 100.2 175.651 98.4292 180.704 98.4292C185.71 98.4292 189.972 100.2 193.49 103.742C197.008 107.283 198.767 111.557 198.767 116.562C198.767 118.593 198.436 120.553 197.775 122.442C197.114 124.331 196.122 126.101 194.8 127.754L213.5 146.312L210.383 149.429ZM180.704 130.446C184.529 130.446 187.788 129.088 190.479 126.373C193.171 123.658 194.517 120.388 194.517 116.562C194.517 112.738 193.171 109.467 190.479 106.752C187.788 104.037 184.529 102.679 180.704 102.679C176.832 102.679 173.538 104.037 170.823 106.752C168.108 109.467 166.75 112.738 166.75 116.562C166.75 120.388 168.108 123.658 170.823 126.373C173.538 129.088 176.832 130.446 180.704 130.446Z" fill="black"/>
</svg>
