<svg width="900" height="1230" viewBox="0 0 900 1230" fill="none" xmlns="http://www.w3.org/2000/svg">
<g opacity="0.05">
<path d="M308.437 1100.95C303.437 1093.22 300.625 1083.55 300 1071.95C299.375 1060.35 301.25 1050.2 305.625 1041.5L487.5 650L183.75 605.05C167.5 603.117 156.718 590.067 151.406 565.9C146.093 541.733 149.687 521.433 162.187 505L551.25 -34.4C556.875 -43.1 563.593 -47.2083 571.406 -46.725C579.218 -46.2417 585.937 -41.65 591.562 -32.95C596.562 -25.2167 599.375 -15.55 600 -3.95C600.625 7.65 598.75 17.8 594.375 26.5L412.5 418L716.25 462.95C732.5 464.883 743.281 477.933 748.593 502.1C753.906 526.267 750.312 546.567 737.812 563L348.75 1102.4C343.125 1111.1 336.406 1115.21 328.593 1114.73C320.781 1114.24 314.062 1109.65 308.437 1100.95Z" fill="black"/>
</g>
</svg>
