<svg width="82" height="82" viewBox="0 0 82 82" fill="none" xmlns="http://www.w3.org/2000/svg">
<path d="M25.625 23.0625C29.8707 23.0625 33.3125 19.6207 33.3125 15.375C33.3125 11.1293 29.8707 7.6875 25.625 7.6875C21.3793 7.6875 17.9375 11.1293 17.9375 15.375C17.9375 19.6207 21.3793 23.0625 25.625 23.0625Z" stroke="#515151" stroke-width="5" stroke-linecap="round" stroke-linejoin="round"/>
<path d="M25.625 74.3125C29.8707 74.3125 33.3125 70.8707 33.3125 66.625C33.3125 62.3793 29.8707 58.9375 25.625 58.9375C21.3793 58.9375 17.9375 62.3793 17.9375 66.625C17.9375 70.8707 21.3793 74.3125 25.625 74.3125Z" stroke="#515151" stroke-width="5" stroke-linecap="round" stroke-linejoin="round"/>
<path d="M25.625 58.9375V23.0625" stroke="#515151" stroke-width="5" stroke-linecap="round" stroke-linejoin="round"/>
<path d="M56.375 33.3125C60.6207 33.3125 64.0625 29.8707 64.0625 25.625C64.0625 21.3793 60.6207 17.9375 56.375 17.9375C52.1293 17.9375 48.6875 21.3793 48.6875 25.625C48.6875 29.8707 52.1293 33.3125 56.375 33.3125Z" stroke="#515151" stroke-width="5" stroke-linecap="round" stroke-linejoin="round"/>
<path d="M56.375 33.3125C56.375 53.8125 25.625 41 25.625 58.9375" stroke="#515151" stroke-width="5" stroke-linecap="round" stroke-linejoin="round"/>
</svg>
