<svg width="86" height="86" viewBox="0 0 86 86" fill="none" xmlns="http://www.w3.org/2000/svg">
<path d="M15.653 55.3256L23.6231 4.25132C23.8986 2.50948 26.235 2.09796 27.0598 3.65503L35.6262 19.6876L15.653 55.3256ZM72.5625 67.1875L64.7116 20.6955C64.6547 20.3631 64.5079 20.0527 64.2872 19.7979C64.0665 19.543 63.7802 19.3534 63.4594 19.2496C63.1386 19.1458 62.7956 19.1317 62.4674 19.2089C62.1392 19.2861 61.8383 19.4517 61.5975 19.6876L13.4375 67.1875L40.205 82.6255C41.0264 83.076 41.9481 83.3122 42.8849 83.3122C43.8218 83.3122 44.7435 83.076 45.5649 82.6255L72.5625 67.1875ZM50.787 26.6953L44.6495 15.0148C44.4968 14.7147 44.2642 14.4627 43.9772 14.2867C43.6902 14.1107 43.3602 14.0175 43.0235 14.0175C42.6869 14.0175 42.3568 14.1107 42.0698 14.2867C41.7829 14.4627 41.5502 14.7147 41.3976 15.0148L14.4168 63.1126L50.787 26.6953Z" fill="#515151"/>
</svg>
