<svg width="92" height="87" viewBox="0 0 92 87" fill="none" xmlns="http://www.w3.org/2000/svg">
<path d="M59.7385 29.9062C63.5108 29.9062 67.1286 28.4741 69.796 25.9247C72.4635 23.3754 73.962 19.9178 73.962 16.3125C73.962 12.7072 72.4635 9.24959 69.796 6.70027C67.1286 4.15094 63.5108 2.71875 59.7385 2.71875H31.2916C27.5193 2.71875 23.9015 4.15094 21.2341 6.70027C18.5667 9.24959 17.0681 12.7072 17.0681 16.3125C17.0681 19.9178 18.5667 23.3754 21.2341 25.9247C23.9015 28.4741 27.5193 29.9062 31.2916 29.9062C27.5193 29.9062 23.9015 31.3384 21.2341 33.8878C18.5667 36.4371 17.0681 39.8947 17.0681 43.5C17.0681 47.1053 18.5667 50.5629 21.2341 53.1122C23.9015 55.6616 27.5193 57.0938 31.2916 57.0938C28.4785 57.0938 25.7285 57.891 23.3895 59.3847C21.0504 60.8784 19.2274 63.0015 18.1508 65.4854C17.0743 67.9693 16.7926 70.7026 17.3414 73.3395C17.8902 75.9764 19.2449 78.3986 21.2341 80.2997C23.2233 82.2009 25.7576 83.4955 28.5167 84.0201C31.2758 84.5446 34.1357 84.2754 36.7347 83.2465C39.3337 82.2176 41.5551 80.4753 43.118 78.2398C44.6809 76.0043 45.5151 73.3761 45.5151 70.6875V29.9062H59.7385Z" fill="#515151"/>
<path d="M59.7386 57.0938C67.594 57.0938 73.9621 51.0076 73.9621 43.5C73.9621 35.9924 67.594 29.9062 59.7386 29.9062C51.8832 29.9062 45.5151 35.9924 45.5151 43.5C45.5151 51.0076 51.8832 57.0938 59.7386 57.0938Z" fill="#515151"/>
</svg>
