<svg width="74" height="77" viewBox="0 0 74 77" fill="none" xmlns="http://www.w3.org/2000/svg">
<mask id="mask0_41_43" style="mask-type:alpha" maskUnits="userSpaceOnUse" x="0" y="0" width="74" height="77">
<g clip-path="url(#clip0_41_43)">
<path d="M43.2508 75.1492C41.3095 77.603 37.3733 76.2586 37.3266 73.1254L36.6426 27.2993H67.3422C72.9027 27.2993 76.0039 33.7456 72.5463 38.1166L43.2508 75.1492Z" fill="url(#paint0_linear_41_43)"/>
<path d="M43.2508 75.1492C41.3095 77.603 37.3733 76.2586 37.3266 73.1254L36.6426 27.2993H67.3422C72.9027 27.2993 76.0039 33.7456 72.5463 38.1166L43.2508 75.1492Z" fill="url(#paint1_linear_41_43)" fill-opacity="0.2"/>
<path d="M30.7655 1.41113C32.7068 -1.04292 36.6431 0.301721 36.6899 3.43491L36.9896 49.261H6.67421C1.11351 49.261 -1.98779 42.8147 1.47002 38.4437L30.7655 1.41113Z" fill="#3ECF8E"/>
</g>
</mask>
<g mask="url(#mask0_41_43)">
<rect y="52" width="74" height="25" fill="#515151"/>
<rect y="-6" width="74" height="58" fill="#D9D9D9"/>
</g>
<defs>
<linearGradient id="paint0_linear_41_43" x1="36.6426" y1="37.4601" x2="63.9575" y2="48.8736" gradientUnits="userSpaceOnUse">
<stop stop-color="#249361"/>
<stop offset="1" stop-color="#3ECF8E"/>
</linearGradient>
<linearGradient id="paint1_linear_41_43" x1="24.546" y1="20.8363" x2="37.0612" y2="44.3085" gradientUnits="userSpaceOnUse">
<stop/>
<stop offset="1" stop-opacity="0"/>
</linearGradient>
<clipPath id="clip0_41_43">
<rect width="74" height="77" fill="white"/>
</clipPath>
</defs>
</svg>
