<svg width="245" height="175" viewBox="0 0 245 175" fill="none" xmlns="http://www.w3.org/2000/svg">
<path d="M75.3442 116.156C84.2799 116.156 91.8617 113.094 98.0896 106.969C104.318 100.844 107.431 93.4062 107.431 84.6562C107.431 77.0729 105.164 70.5833 100.628 65.1875C96.0926 59.7917 90.5755 57.0937 84.0768 57.0937C78.3904 57.0937 73.5164 59.099 69.4548 63.1094C65.3931 67.1198 63.3622 71.9688 63.3622 77.6562C63.3622 80.1354 63.8022 82.5417 64.6823 84.875C65.5623 87.2083 66.8823 89.3958 68.6424 91.4375L77.5781 82.25C76.9012 81.6667 76.3935 81.0104 76.055 80.2812C75.7165 79.5521 75.5473 78.75 75.5473 77.875C75.5473 75.8333 76.2919 74.0833 77.7812 72.625C79.2705 71.1667 81.369 70.4375 84.0768 70.4375C87.1908 70.4375 89.8647 71.7865 92.0986 74.4844C94.3325 77.1823 95.4495 80.6458 95.4495 84.875C95.4495 89.9792 93.5541 94.3177 89.7632 97.8906C85.9723 101.464 81.2336 103.25 75.5473 103.25C68.6424 103.25 62.7868 100.297 57.9805 94.3906C53.1742 88.4844 50.771 81.1562 50.771 72.4062C50.771 67.8854 51.5495 63.5833 53.1065 59.5C54.6635 55.4167 56.9312 51.7708 59.9098 48.5625L51.1772 39.1562C47.1155 43.3854 43.9677 48.3802 41.7338 54.1406C39.4998 59.901 38.3829 65.9167 38.3829 72.1875C38.3829 84.4375 41.9707 94.8281 49.1463 103.359C56.322 111.891 65.0546 116.156 75.3442 116.156ZM24.3701 175V137.375C16.6529 129.792 10.6619 120.932 6.39715 110.797C2.13238 100.661 0 89.9792 0 78.75C0 56.875 7.10794 38.2812 21.3238 22.9688C35.5397 7.65625 52.8019 0 73.1103 0C90.0339 0 105.028 5.35938 118.093 16.0781C131.158 26.7969 139.654 40.7604 143.58 57.9688L154.75 105.656C155.292 107.698 154.953 109.557 153.735 111.234C152.516 112.911 150.891 113.75 148.861 113.75H129.974V144.375C129.974 148.021 128.789 151.12 126.42 153.672C124.051 156.224 121.173 157.5 117.789 157.5H97.4803V175H85.2953V144.375H117.789V100.625H140.94L131.802 61.25C128.552 47.1042 121.444 35.5469 110.478 26.5781C99.5112 17.6094 87.0554 13.125 73.1103 13.125C56.1866 13.125 41.8015 19.4323 29.9549 32.0469C18.1083 44.6615 12.185 60.0833 12.185 78.3125C12.185 87.6458 13.979 96.5417 17.5668 105C21.1546 113.458 26.1978 120.969 32.6965 127.531L36.5551 131.469V175H24.3701Z" fill="black"/>
<path d="M224.3 114V104.625H212.75V73.875H205.775V83.625H185V60H205.775V69.375H224.3V60H245V83.625H224.3V73.875H217.25V100.125H224.3V90.375H245V114H224.3ZM228.8 79.125H240.5V64.5H228.8V79.125ZM228.8 109.5H240.5V94.875H228.8V109.5ZM189.5 79.125H201.275V64.5H189.5V79.125Z" fill="black"/>
</svg>
